<svg version="1.0" xmlns="http://www.w3.org/2000/svg" width="682.667" height="682.667" viewBox="0 0 512.000000 512.000000"><path d="M113 .7C82.3 5.1 56.2 18.1 35.6 39.5 20.2 55.4 8.2 77.3 3.5 98c-2.2 10-3 16.9-3 29 0 15.7 1.2 26.3 3.6 32.7.6 1.5 1 3 1 3.3-.3 1.8 5 15.1 9.2 23.4 17.9 35.2 50.9 59.7 90.7 67.5 3 .6 7 1.2 8.8 1.3 1.7.1 3.2.5 3.2.9 0 .3-1.5.6-3.2.7-3.6.1-16.6 2.7-17.4 3.4-.2.3-.4 38.2-.4 84.3l-.1 83.8-3.3 3.3c-3.8 3.8-7.7 4.4-12.4 2-5.7-3-5.5.1-5.5-85.3 0-43.4-.2-79.1-.4-79.5-.5-1-10.3 4-17.4 8.9-30.2 20.6-49.5 50.8-55.3 86.4-1.4 8.2-1.5 34.4-.2 39.9.4 1.4.9 3.8 1.1 5.5.3 1.6 1.3 5.5 2.1 8.5 13.3 47.7 51.6 82.6 100.9 91.9 13.5 2.6 36.2 2.3 49-.7 39.7-9 71.5-34 88.9-69.9 3.5-7.2 8.3-20.5 9.2-25.7.3-1.7.9-4.9 1.4-7.1.5-2.2 1-5.5 1-7.3 0-3.4 1.5-4.5 1.7-1.2.1 1.1.9 5.8 1.8 10.4 6.3 34.1 27.8 65.5 57.4 84.1 11.3 7 31.4 15.1 42.1 16.9 1.9.3 4.6.8 6 1.2 5.6 1.3 31.7 1.2 40.3-.2 53.6-8.7 95.5-50 105.6-103.9 2.2-11.4 2.3-36.2.2-45.1l-1.2-5.1H352l.2 27.6.3 27.6 37.7.1c40.1.1 42.2.3 45.3 5 3.1 4.8.9 13-4.2 15.3-3.5 1.6-91.7 1.5-94.6-.1-3.5-1.8-4.6-3.4-5.4-7.5-.5-2.1-.8-21-.7-41.9 0-29 .4-38.9 1.4-41.3 2.6-6.4-1.2-6.1 88.5-6.1 44.8 0 81.5-.3 81.5-.6s-2.1-4.7-4.7-9.7c-11.7-22.7-31.4-42.3-54.2-54.1-13.5-7-28.2-11.7-40.5-13.1-8-1-8.5-1-9-1.6-.3-.2.7-.5 2.2-.5 6.5-.3 18-2.7 27-5.5 45.2-14.4 78.2-52.1 87.1-99.4 2.4-12.5 2.2-36.1-.3-47.5-8.2-37.7-31.5-69.4-63.8-87-4-2.2-7.6-4-7.9-4-.3 0-.6 35-.6 77.7 0 42.8-.3 79.5-.7 81.6-1.7 9-15.1 10.5-19.1 2.2-1.3-2.9-1.5-13.5-1.5-86.4v-83l-3.7-1c-7-1.8-15.7-2.6-29.3-2.6-12.3 0-27.1 1.7-29.9 3.4-.8.5-1.2 24.4-1.4 85l-.2 84.3-3.3 2.9c-3.6 3.2-7.7 3.7-12 1.5-5.7-2.9-5.5.2-5.5-86.1 0-43.7-.2-79.5-.3-79.5-2.2 0-14 7-22.9 13.5-27.9 20.5-47.7 55.1-50.8 88.7-.5 5.1-1.2 5.6-1.5 1-.5-7.6-5.2-29.1-6.9-31.2-.2-.2-25.7 24.9-56.6 55.8-39.1 39.1-57.1 56.5-59.2 57-7 2-13.5-3.2-13.5-10.8 0-3.3 3.6-7.1 59.6-63.1 57.3-57.3 59.6-59.7 58.4-62-2.5-4.8-12.1-17-18.5-23.3-6.9-6.8-15.2-13.5-21.8-17.6l-3.9-2.3-59.7 59.7c-56 56-59.8 59.6-63.1 59.6-4.6 0-9.5-3.1-10.7-6.7-1-3.2-1-3.8.1-7.3.4-1.4 26-27.8 56.8-58.6 54.6-54.7 56-56.2 53.7-57.5-1.3-.7-2.6-1.2-2.9-1.2-.3 0-.9-.1-1.5-.2-.5-.2-2.3-.7-4-1.1-1.6-.4-3.4-.8-4-1-9.4-2.4-35.2-4-44.5-2.7zm143.5 138c-.2 4.4 3.2 21 6.1 29.8 14.2 43 53.1 77.4 96.4 85.1 1.9.3 4.2.7 5 .9.8.2 3 .4 4.8.4 1.7.1 3.2.5 3.2 1.1 0 .5-1.5 1-3.2 1-1.8 0-5.1.5-7.3 1s-5.4 1.1-7.1 1.4c-1.7.3-6.7 1.8-11 3.2-43.9 14.7-77 52.7-85 97.7-2.5 14.2-2.8 14.6-3.8 5.7-1-8.4-1.4-10.5-4.7-20.9-8-24.9-23.9-47.2-45.3-63.5-6.1-4.7-20.9-13.5-22.7-13.6-.3 0-.6 35.8-.6 79.5 0 86.3.2 83.1-5.5 86.1-4.3 2.2-8.4 1.7-12-1.5l-3.3-2.9-.3-84.6c-.2-79.2-.3-84.5-2-85-1.6-.4-4.4-1-10.2-2.1-1.3-.3-3.9-.6-5.7-.7-3.7-.2-4.6-1.5-1-1.6 4.8 0 20.2-3.4 28.5-6.3 40.3-14.2 70.3-46.3 81.7-87.5 1.9-6.8 3.1-13.2 4.1-22.7.2-2.3.3-2.7.7-2.7.2 0 .3 1.2.2 2.7zm.2 254.8c0 .8-.4 1.2-.9.9-.5-.3-.6-1-.3-1.5.9-1.3 1.2-1.1 1.2.6z"/></svg>